<?xml version="1.0" encoding="UTF-8"?>
<!DOCTYPE svg PUBLIC "-//W3C//DTD SVG 1.1//EN" "http://www.w3.org/Graphics/SVG/1.1/DTD/svg11.dtd">
<svg xmlns="http://www.w3.org/2000/svg" version="1.1" width="500px" height="500px"
    style="shape-rendering:geometricPrecision; text-rendering:geometricPrecision; image-rendering:optimizeQuality; fill-rule:evenodd; clip-rule:evenodd"
    xmlns:xlink="http://www.w3.org/1999/xlink">
    <g>
        <path style="opacity:1" fill="#ef7153"
            d="M 374.5,59.5 C 375.035,61.4456 376.368,62.4456 378.5,62.5C 394.305,72.6296 408.305,84.9629 420.5,99.5C 420.427,101.027 421.094,102.027 422.5,102.5C 423.833,103.167 424.833,104.167 425.5,105.5C 425.427,107.027 426.094,108.027 427.5,108.5C 431.897,112.959 435.564,117.959 438.5,123.5C 438.427,125.027 439.094,126.027 440.5,126.5C 440.427,128.027 441.094,129.027 442.5,129.5C 444.588,131.336 445.921,133.669 446.5,136.5C 446.427,138.027 447.094,139.027 448.5,139.5C 454.833,149.836 459.833,160.836 463.5,172.5C 463.12,174.698 463.787,176.365 465.5,177.5C 465.5,177.833 465.5,178.167 465.5,178.5C 465.41,181.152 466.076,183.485 467.5,185.5C 467.41,188.152 468.076,190.485 469.5,192.5C 487.96,271.045 471.126,341.045 419,402.5C 357.313,465.964 283.146,488.631 196.5,470.5C 194.485,469.076 192.152,468.41 189.5,468.5C 187.901,468.768 186.568,468.434 185.5,467.5C 183.485,466.076 181.152,465.41 178.5,465.5C 178.167,465.5 177.833,465.5 177.5,465.5C 176.365,463.787 174.698,463.12 172.5,463.5C 160.87,459.851 149.87,454.851 139.5,448.5C 139.027,447.094 138.027,446.427 136.5,446.5C 133.669,445.921 131.336,444.588 129.5,442.5C 129.027,441.094 128.027,440.427 126.5,440.5C 126.027,439.094 125.027,438.427 123.5,438.5C 123.027,437.094 122.027,436.427 120.5,436.5C 117.883,435.214 115.55,433.547 113.5,431.5C 113.027,430.094 112.027,429.427 110.5,429.5C 107.216,427.883 104.549,425.55 102.5,422.5C 101.738,420.738 100.404,419.738 98.5,419.5C 80.1259,403.806 65.1259,385.472 53.5,364.5C 53.7148,362.821 53.0481,361.821 51.5,361.5C 21.8524,306.985 14.8524,249.651 30.5,189.5C 32.0739,187.898 32.7406,185.898 32.5,183.5C 37.1347,165.571 44.4681,148.905 54.5,133.5C 55.9063,133.027 56.573,132.027 56.5,130.5C 57.1103,128.566 58.1103,126.899 59.5,125.5C 60.9063,125.027 61.573,124.027 61.5,122.5C 65.016,116.8 69.016,111.467 73.5,106.5C 75.2624,105.738 76.2624,104.404 76.5,102.5C 77.5,100.833 78.8333,99.5 80.5,98.5C 81.9063,98.0269 82.573,97.0269 82.5,95.5C 84.5,92.8333 86.8333,90.5 89.5,88.5C 93.1002,86.5698 96.1002,83.9031 98.5,80.5C 98.5,79.8333 98.8333,79.5 99.5,79.5C 102.427,78.2427 104.761,76.2427 106.5,73.5C 109.929,69.7376 113.929,66.7376 118.5,64.5C 120.404,64.2624 121.738,63.2624 122.5,61.5C 124.027,61.573 125.027,60.9063 125.5,59.5C 144.371,46.4016 165.038,37.0682 187.5,31.5C 190.152,31.5905 192.485,30.9238 194.5,29.5C 258.775,13.8215 318.775,23.8215 374.5,59.5 Z M 355.5,76.5 C 355.973,77.9063 356.973,78.573 358.5,78.5C 360.205,80.1921 362.205,81.5254 364.5,82.5C 364.973,83.9063 365.973,84.573 367.5,84.5C 431.45,134.11 458.95,199.443 450,280.5C 443.718,318.051 428.552,351.384 404.5,380.5C 403.094,380.973 402.427,381.973 402.5,383.5C 344.32,444.053 274.32,464.22 192.5,444C 144.254,428.89 106.254,400.39 78.5,358.5C 78.573,356.973 77.9063,355.973 76.5,355.5C 43.2822,297.181 38.4488,236.514 62,173.5C 93.3111,103.536 146.811,62.0356 222.5,49C 269.977,43.2618 314.311,52.4284 355.5,76.5 Z" />
    </g>
    <g>
        <path style="opacity:0.933" fill="#f7a591"
            d="M 194.5,29.5 C 192.485,30.9238 190.152,31.5905 187.5,31.5C 189.515,30.0762 191.848,29.4095 194.5,29.5 Z" />
    </g>
    <g>
        <path style="opacity:0.729" fill="#fabaaa"
            d="M 125.5,59.5 C 125.027,60.9063 124.027,61.573 122.5,61.5C 122.973,60.0937 123.973,59.427 125.5,59.5 Z" />
    </g>
    <g>
        <path style="opacity:0.949" fill="#fcb9a8"
            d="M 374.5,59.5 C 376.23,60.0256 377.564,61.0256 378.5,62.5C 376.368,62.4456 375.035,61.4456 374.5,59.5 Z" />
    </g>
    <g>
        <path style="opacity:0.71" fill="#f9b3a2"
            d="M 122.5,61.5 C 121.738,63.2624 120.404,64.2624 118.5,64.5C 119.262,62.7376 120.596,61.7376 122.5,61.5 Z" />
    </g>
    <g>
        <path style="opacity:0.843" fill="#f8a994"
            d="M 106.5,73.5 C 104.761,76.2427 102.427,78.2427 99.5,79.5C 101.239,76.7573 103.573,74.7573 106.5,73.5 Z" />
    </g>
    <g>
        <path style="opacity:0.533" fill="#fab9a9"
            d="M 355.5,76.5 C 357.027,76.427 358.027,77.0937 358.5,78.5C 356.973,78.573 355.973,77.9063 355.5,76.5 Z" />
    </g>
    <g>
        <path style="opacity:0.592" fill="#fab6a5"
            d="M 364.5,82.5 C 366.027,82.427 367.027,83.0937 367.5,84.5C 365.973,84.573 364.973,83.9063 364.5,82.5 Z" />
    </g>
    <g>
        <path style="opacity:0.839" fill="#f9af9c"
            d="M 98.5,80.5 C 96.1002,83.9031 93.1002,86.5698 89.5,88.5C 91.8998,85.0969 94.8998,82.4302 98.5,80.5 Z" />
    </g>
    <g>
        <path style="opacity:0.741" fill="#fbbaaa"
            d="M 82.5,95.5 C 82.573,97.0269 81.9063,98.0269 80.5,98.5C 80.427,96.9731 81.0937,95.9731 82.5,95.5 Z" />
    </g>
    <g>
        <path style="opacity:0.714" fill="#fbc1b3"
            d="M 420.5,99.5 C 421.906,99.9731 422.573,100.973 422.5,102.5C 421.094,102.027 420.427,101.027 420.5,99.5 Z" />
    </g>
    <g>
        <path style="opacity:0.804" fill="#fbbaaa"
            d="M 76.5,102.5 C 76.2624,104.404 75.2624,105.738 73.5,106.5C 73.7376,104.596 74.7376,103.262 76.5,102.5 Z" />
    </g>
    <g>
        <path style="opacity:1" fill="#ee6f50"
            d="M 335.5,141.5 C 335.738,143.404 336.738,144.738 338.5,145.5C 338.427,147.027 339.094,148.027 340.5,148.5C 346.618,157.856 349.951,168.189 350.5,179.5C 350.5,182.5 350.5,185.5 350.5,188.5C 332.5,188.5 314.5,188.5 296.5,188.5C 296.806,185.615 296.473,182.948 295.5,180.5C 292.199,166.363 283.532,157.196 269.5,153C 254.827,149.297 240.494,150.297 226.5,156C 212.099,164.626 207.766,176.793 213.5,192.5C 213.427,194.027 214.094,195.027 215.5,195.5C 221.274,201.228 227.94,205.728 235.5,209C 251.284,215.261 267.284,220.928 283.5,226C 302.696,232.75 319.363,243.25 333.5,257.5C 333.738,259.404 334.738,260.738 336.5,261.5C 338.262,262.262 339.262,263.596 339.5,265.5C 339.427,267.027 340.094,268.027 341.5,268.5C 350.975,285.308 353.808,303.308 350,322.5C 343.221,346.616 328.055,363.116 304.5,372C 273.707,382.119 242.707,382.786 211.5,374C 203.352,371.349 195.685,367.849 188.5,363.5C 188.027,362.094 187.027,361.427 185.5,361.5C 185.027,360.094 184.027,359.427 182.5,359.5C 182.027,358.094 181.027,357.427 179.5,357.5C 179.027,356.094 178.027,355.427 176.5,355.5C 173.94,353.727 171.607,351.727 169.5,349.5C 169.5,347.5 168.5,346.5 166.5,346.5C 152.943,331.175 146.277,313.175 146.5,292.5C 165.167,292.5 183.833,292.5 202.5,292.5C 202.476,301.345 204.476,309.679 208.5,317.5C 208.427,319.027 209.094,320.027 210.5,320.5C 222.92,331.618 237.586,336.952 254.5,336.5C 264.643,336.072 274.309,333.739 283.5,329.5C 285.404,329.262 286.738,328.262 287.5,326.5C 287.833,325.5 288.5,324.833 289.5,324.5C 290.906,324.027 291.573,323.027 291.5,321.5C 292.906,321.027 293.573,320.027 293.5,318.5C 296.167,310.167 296.167,301.833 293.5,293.5C 293.715,291.821 293.048,290.821 291.5,290.5C 291.167,289.833 290.833,289.167 290.5,288.5C 289.167,285.167 286.833,282.833 283.5,281.5C 283.027,280.094 282.027,279.427 280.5,279.5C 270.99,275.108 261.323,271.108 251.5,267.5C 250.365,265.787 248.698,265.12 246.5,265.5C 226.863,260.188 208.53,252.188 191.5,241.5C 191.027,240.094 190.027,239.427 188.5,239.5C 187.738,237.738 186.404,236.738 184.5,236.5C 180.88,234.547 177.88,231.881 175.5,228.5C 175.027,227.094 174.027,226.427 172.5,226.5C 170.115,224.116 168.115,221.45 166.5,218.5C 166.715,216.821 166.048,215.821 164.5,215.5C 151.165,191.898 151.499,168.564 165.5,145.5C 166.906,145.027 167.573,144.027 167.5,142.5C 168.906,142.027 169.573,141.027 169.5,139.5C 170.864,137.809 172.197,136.142 173.5,134.5C 175.027,134.573 176.027,133.906 176.5,132.5C 187.345,121.738 200.345,114.571 215.5,111C 241.59,104.753 267.59,105.086 293.5,112C 310.732,117.424 324.732,127.257 335.5,141.5 Z" />
    </g>
    <g>
        <path style="opacity:0.486" fill="#fac3b5"
            d="M 425.5,105.5 C 426.906,105.973 427.573,106.973 427.5,108.5C 426.094,108.027 425.427,107.027 425.5,105.5 Z" />
    </g>
    <g>
        <path style="opacity:0.412" fill="#fbc3b6"
            d="M 61.5,122.5 C 61.573,124.027 60.9063,125.027 59.5,125.5C 59.427,123.973 60.0937,122.973 61.5,122.5 Z" />
    </g>
    <g>
        <path style="opacity:0.549" fill="#f9b8a8"
            d="M 438.5,123.5 C 439.906,123.973 440.573,124.973 440.5,126.5C 439.094,126.027 438.427,125.027 438.5,123.5 Z" />
    </g>
    <g>
        <path style="opacity:0.416" fill="#fbc4b6"
            d="M 440.5,126.5 C 441.906,126.973 442.573,127.973 442.5,129.5C 441.094,129.027 440.427,128.027 440.5,126.5 Z" />
    </g>
    <g>
        <path style="opacity:0.451" fill="#fabeaf"
            d="M 56.5,130.5 C 56.573,132.027 55.9063,133.027 54.5,133.5C 54.427,131.973 55.0937,130.973 56.5,130.5 Z" />
    </g>
    <g>
        <path style="opacity:0.733" fill="#f9b5a4"
            d="M 176.5,132.5 C 176.027,133.906 175.027,134.573 173.5,134.5C 173.973,133.094 174.973,132.427 176.5,132.5 Z" />
    </g>
    <g>
        <path style="opacity:0.384" fill="#fac6b9"
            d="M 446.5,136.5 C 447.906,136.973 448.573,137.973 448.5,139.5C 447.094,139.027 446.427,138.027 446.5,136.5 Z" />
    </g>
    <g>
        <path style="opacity:0.718" fill="#fbbfb1"
            d="M 169.5,139.5 C 169.573,141.027 168.906,142.027 167.5,142.5C 167.427,140.973 168.094,139.973 169.5,139.5 Z" />
    </g>
    <g>
        <path style="opacity:0.882" fill="#fab4a3"
            d="M 335.5,141.5 C 337.262,142.262 338.262,143.596 338.5,145.5C 336.738,144.738 335.738,143.404 335.5,141.5 Z" />
    </g>
    <g>
        <path style="opacity:0.471" fill="#fabcae"
            d="M 167.5,142.5 C 167.573,144.027 166.906,145.027 165.5,145.5C 165.427,143.973 166.094,142.973 167.5,142.5 Z" />
    </g>
    <g>
        <path style="opacity:0.357" fill="#fbc7ba"
            d="M 338.5,145.5 C 339.906,145.973 340.573,146.973 340.5,148.5C 339.094,148.027 338.427,147.027 338.5,145.5 Z" />
    </g>
    <g>
        <path style="opacity:0.898" fill="#fbb9a8"
            d="M 463.5,172.5 C 464.537,173.93 465.204,175.597 465.5,177.5C 463.787,176.365 463.12,174.698 463.5,172.5 Z" />
    </g>
    <g>
        <path style="opacity:0.886" fill="#f9b09e"
            d="M 465.5,178.5 C 466.924,180.515 467.59,182.848 467.5,185.5C 466.076,183.485 465.41,181.152 465.5,178.5 Z" />
    </g>
    <g>
        <path style="opacity:0.882" fill="#fab5a4"
            d="M 32.5,183.5 C 32.7406,185.898 32.0739,187.898 30.5,189.5C 30.595,187.214 31.2616,185.214 32.5,183.5 Z" />
    </g>
    <g>
        <path style="opacity:0.238" fill="#fad6cd"
            d="M 350.5,179.5 C 351.479,182.625 351.813,185.958 351.5,189.5C 332.833,189.5 314.167,189.5 295.5,189.5C 295.5,186.5 295.5,183.5 295.5,180.5C 296.473,182.948 296.806,185.615 296.5,188.5C 314.5,188.5 332.5,188.5 350.5,188.5C 350.5,185.5 350.5,182.5 350.5,179.5 Z" />
    </g>
    <g>
        <path style="opacity:0.933" fill="#f9ac98"
            d="M 467.5,185.5 C 468.924,187.515 469.59,189.848 469.5,192.5C 468.076,190.485 467.41,188.152 467.5,185.5 Z" />
    </g>
    <g>
        <path style="opacity:0.808" fill="#fab5a3"
            d="M 213.5,192.5 C 214.906,192.973 215.573,193.973 215.5,195.5C 214.094,195.027 213.427,194.027 213.5,192.5 Z" />
    </g>
    <g>
        <path style="opacity:0.949" fill="#fcb4a1"
            d="M 164.5,215.5 C 166.048,215.821 166.715,216.821 166.5,218.5C 165.599,217.71 164.932,216.71 164.5,215.5 Z" />
    </g>
    <g>
        <path style="opacity:0.643" fill="#fbc6ba"
            d="M 172.5,226.5 C 174.027,226.427 175.027,227.094 175.5,228.5C 173.973,228.573 172.973,227.906 172.5,226.5 Z" />
    </g>
    <g>
        <path style="opacity:0.902" fill="#fab5a3"
            d="M 184.5,236.5 C 186.404,236.738 187.738,237.738 188.5,239.5C 186.596,239.262 185.262,238.262 184.5,236.5 Z" />
    </g>
    <g>
        <path style="opacity:0.569" fill="#f9b6a5"
            d="M 188.5,239.5 C 190.027,239.427 191.027,240.094 191.5,241.5C 189.973,241.573 188.973,240.906 188.5,239.5 Z" />
    </g>
    <g>
        <path style="opacity:0.82" fill="#fab9a9"
            d="M 333.5,257.5 C 335.262,258.262 336.262,259.596 336.5,261.5C 334.738,260.738 333.738,259.404 333.5,257.5 Z" />
    </g>
    <g>
        <path style="opacity:0.918" fill="#fbb8a7"
            d="M 246.5,265.5 C 248.698,265.12 250.365,265.787 251.5,267.5C 249.597,267.204 247.93,266.537 246.5,265.5 Z" />
    </g>
    <g>
        <path style="opacity:0.388" fill="#fbc5b8"
            d="M 339.5,265.5 C 340.906,265.973 341.573,266.973 341.5,268.5C 340.094,268.027 339.427,267.027 339.5,265.5 Z" />
    </g>
    <g>
        <path style="opacity:0.471" fill="#fac0b2"
            d="M 280.5,279.5 C 282.027,279.427 283.027,280.094 283.5,281.5C 281.973,281.573 280.973,280.906 280.5,279.5 Z" />
    </g>
    <g>
        <path style="opacity:0.863" fill="#fcc4b6"
            d="M 283.5,281.5 C 286.833,282.833 289.167,285.167 290.5,288.5C 287.833,286.5 285.5,284.167 283.5,281.5 Z" />
    </g>
    <g>
        <path style="opacity:0.949" fill="#fcb5a3"
            d="M 291.5,290.5 C 293.048,290.821 293.715,291.821 293.5,293.5C 292.599,292.71 291.932,291.71 291.5,290.5 Z" />
    </g>
    <g>
        <path style="opacity:0.529" fill="#fabcad"
            d="M 208.5,317.5 C 209.906,317.973 210.573,318.973 210.5,320.5C 209.094,320.027 208.427,319.027 208.5,317.5 Z" />
    </g>
    <g>
        <path style="opacity:0.553" fill="#f9b6a5"
            d="M 293.5,318.5 C 293.573,320.027 292.906,321.027 291.5,321.5C 291.427,319.973 292.094,318.973 293.5,318.5 Z" />
    </g>
    <g>
        <path style="opacity:0.463" fill="#fac0b2"
            d="M 291.5,321.5 C 291.573,323.027 290.906,324.027 289.5,324.5C 289.427,322.973 290.094,321.973 291.5,321.5 Z" />
    </g>
    <g>
        <path style="opacity:0.694" fill="#f9b2a0"
            d="M 287.5,326.5 C 286.738,328.262 285.404,329.262 283.5,329.5C 284.262,327.738 285.596,326.738 287.5,326.5 Z" />
    </g>
    <g>
        <path style="opacity:0.667" fill="#fcccc0"
            d="M 166.5,346.5 C 168.5,346.5 169.5,347.5 169.5,349.5C 168.167,348.833 167.167,347.833 166.5,346.5 Z" />
    </g>
    <g>
        <path style="opacity:0.482" fill="#fac4b6"
            d="M 176.5,355.5 C 178.027,355.427 179.027,356.094 179.5,357.5C 177.973,357.573 176.973,356.906 176.5,355.5 Z" />
    </g>
    <g>
        <path style="opacity:0.522" fill="#fabaaa"
            d="M 76.5,355.5 C 77.9063,355.973 78.573,356.973 78.5,358.5C 77.0937,358.027 76.427,357.027 76.5,355.5 Z" />
    </g>
    <g>
        <path style="opacity:0.616" fill="#f9b2a1"
            d="M 179.5,357.5 C 181.027,357.427 182.027,358.094 182.5,359.5C 180.973,359.573 179.973,358.906 179.5,357.5 Z" />
    </g>
    <g>
        <path style="opacity:0.569" fill="#f9b5a4"
            d="M 182.5,359.5 C 184.027,359.427 185.027,360.094 185.5,361.5C 183.973,361.573 182.973,360.906 182.5,359.5 Z" />
    </g>
    <g>
        <path style="opacity:0.941" fill="#fbb5a3"
            d="M 51.5,361.5 C 53.0481,361.821 53.7148,362.821 53.5,364.5C 52.5987,363.71 51.9321,362.71 51.5,361.5 Z" />
    </g>
    <g>
        <path style="opacity:0.439" fill="#fac0b2"
            d="M 185.5,361.5 C 187.027,361.427 188.027,362.094 188.5,363.5C 186.973,363.573 185.973,362.906 185.5,361.5 Z" />
    </g>
    <g>
        <path style="opacity:0.804" fill="#fbb5a3"
            d="M 404.5,380.5 C 404.573,382.027 403.906,383.027 402.5,383.5C 402.427,381.973 403.094,380.973 404.5,380.5 Z" />
    </g>
    <g>
        <path style="opacity:0.741" fill="#fbc3b5"
            d="M 98.5,419.5 C 100.404,419.738 101.738,420.738 102.5,422.5C 100.596,422.262 99.2623,421.262 98.5,419.5 Z" />
    </g>
    <g>
        <path style="opacity:0.722" fill="#fbc0b2"
            d="M 110.5,429.5 C 112.027,429.427 113.027,430.094 113.5,431.5C 111.973,431.573 110.973,430.906 110.5,429.5 Z" />
    </g>
    <g>
        <path style="opacity:0.596" fill="#f9b4a3"
            d="M 120.5,436.5 C 122.027,436.427 123.027,437.094 123.5,438.5C 121.973,438.573 120.973,437.906 120.5,436.5 Z" />
    </g>
    <g>
        <path style="opacity:0.573" fill="#f9b5a4"
            d="M 123.5,438.5 C 125.027,438.427 126.027,439.094 126.5,440.5C 124.973,440.573 123.973,439.906 123.5,438.5 Z" />
    </g>
    <g>
        <path style="opacity:0.49" fill="#fabdad"
            d="M 126.5,440.5 C 128.027,440.427 129.027,441.094 129.5,442.5C 127.973,442.573 126.973,441.906 126.5,440.5 Z" />
    </g>
    <g>
        <path style="opacity:0.325" fill="#fbcabf"
            d="M 136.5,446.5 C 138.027,446.427 139.027,447.094 139.5,448.5C 137.973,448.573 136.973,447.906 136.5,446.5 Z" />
    </g>
    <g>
        <path style="opacity:0.929" fill="#fbb6a4"
            d="M 172.5,463.5 C 174.698,463.12 176.365,463.787 177.5,465.5C 175.597,465.204 173.93,464.537 172.5,463.5 Z" />
    </g>
    <g>
        <path style="opacity:0.91" fill="#fab2a0"
            d="M 178.5,465.5 C 181.152,465.41 183.485,466.076 185.5,467.5C 182.848,467.59 180.515,466.924 178.5,465.5 Z" />
    </g>
    <g>
        <path style="opacity:0.722" fill="#f8ab97"
            d="M 189.5,468.5 C 192.152,468.41 194.485,469.076 196.5,470.5C 193.848,470.59 191.515,469.924 189.5,468.5 Z" />
    </g>
</svg>